<?xml version="1.0" standalone="no"?>
<!DOCTYPE svg PUBLIC "-//W3C//DTD SVG 20010904//EN"
 "http://www.w3.org/TR/2001/REC-SVG-20010904/DTD/svg10.dtd">
<svg version="1.0" xmlns="http://www.w3.org/2000/svg"
 width="900.000000pt" height="900.000000pt" viewBox="0 0 900.000000 900.000000"
 preserveAspectRatio="xMidYMid meet">
<metadata>
Created by potrace 1.14, written by Peter Selinger 2001-2017
</metadata>
<g transform="translate(0.000000,900.000000) scale(0.100000,-0.100000)"
fill="#000000" stroke="none">
<path d="M5030 8094 c-8 -2 -82 -10 -163 -18 -81 -9 -153 -18 -158 -22 -6 -3
-8 -22 -5 -43 4 -20 22 -189 41 -375 20 -187 38 -342 40 -344 5 -5 396 35 402
41 1 2 -15 174 -37 382 -22 208 -40 380 -40 382 0 4 -60 2 -80 -3z"/>
<path d="M3767 8079 c-87 -4 -160 -9 -162 -10 -4 -5 36 -843 41 -848 5 -6 392
14 399 21 7 7 -20 693 -31 796 l-5 52 -42 -2 c-23 0 -113 -4 -200 -9z"/>
<path d="M2423 7877 c-89 -56 -162 -106 -162 -111 -1 -5 124 -206 277 -447
204 -324 281 -438 293 -435 13 3 303 182 329 203 7 6 -27 62 -300 492 -140
220 -259 401 -265 401 -5 -1 -83 -47 -172 -103z"/>
<path d="M6445 7788 c-49 -56 -121 -136 -160 -178 -38 -42 -126 -138 -195
-215 -69 -76 -129 -143 -135 -149 -5 -6 -50 -54 -98 -108 l-88 -96 58 -55 c32
-29 100 -92 152 -137 l93 -84 47 50 c25 27 165 182 311 344 146 162 298 330
338 373 40 43 72 82 70 86 -4 9 -287 265 -296 268 -4 1 -47 -44 -97 -99z"/>
<path d="M1167 7024 l-116 -166 27 -22 c15 -12 68 -50 117 -85 119 -82 206
-143 605 -424 184 -130 340 -236 345 -236 11 0 227 307 228 324 0 5 -60 52
-134 104 -74 52 -208 147 -299 211 -358 253 -606 428 -631 443 l-25 17 -117
-166z"/>
<path d="M4145 6929 c-287 -39 -565 -145 -778 -296 -112 -79 -318 -287 -400
-403 -130 -185 -250 -449 -308 -679 -93 -367 38 -839 339 -1216 155 -195 432
-435 630 -547 l52 -30 0 -254 0 -254 -1324 0 c-842 0 -1327 -4 -1331 -10 -6
-10 -26 -170 -95 -780 -22 -195 -70 -607 -106 -914 -35 -307 -63 -560 -62
-562 2 -1 68 -10 148 -19 80 -8 150 -18 157 -20 7 -2 15 0 18 4 2 5 25 186 50
402 24 217 74 649 110 961 36 313 65 575 65 583 0 13 155 15 1350 15 l1350 0
0 504 c0 277 3 511 6 519 4 10 -23 29 -93 67 -371 198 -682 498 -838 810 -118
235 -155 485 -101 685 114 426 396 794 741 967 175 89 367 136 585 145 204 8
435 -26 687 -103 562 -170 904 -466 1009 -872 43 -165 32 -309 -42 -552 -112
-368 -318 -652 -594 -817 -142 -86 -333 -147 -537 -174 l-93 -12 0 -498 0
-499 1444 0 1443 0 6 -47 c3 -27 29 -495 59 -1042 l53 -994 160 7 c88 4 163
10 166 14 6 7 -119 2355 -127 2380 -3 9 -299 12 -1439 12 l-1435 0 0 193 0
194 58 13 c88 19 218 67 317 117 469 234 799 726 905 1348 25 147 23 237 -9
384 -141 645 -721 1093 -1621 1251 -142 25 -455 35 -575 19z"/>
<path d="M7150 6707 c-58 -40 -225 -156 -373 -256 -147 -101 -270 -187 -273
-192 -3 -5 46 -83 108 -173 l113 -165 30 18 c17 10 108 71 202 137 95 65 254
174 353 242 99 68 180 129 180 135 -1 16 -212 320 -225 323 -5 2 -57 -29 -115
-69z"/>
<path d="M4121 6017 c-81 -41 -94 -249 -21 -327 37 -40 71 -39 105 2 38 45 47
74 48 148 0 83 -16 133 -54 165 -34 28 -44 30 -78 12z"/>
<path d="M4521 5974 c-37 -27 -61 -90 -61 -167 0 -178 118 -252 181 -113 36
79 18 231 -32 273 -26 21 -63 24 -88 7z"/>
<path d="M721 5843 c-5 -21 -28 -109 -51 -196 -23 -88 -40 -160 -38 -162 2 -2
179 -49 393 -104 215 -56 495 -129 623 -162 128 -34 235 -59 237 -57 6 6 107
390 103 393 -2 1 -280 74 -618 160 -338 87 -620 160 -627 162 -7 3 -16 -11
-22 -34z"/>
<path d="M7835 5779 c-126 -49 -356 -137 -510 -196 -154 -58 -284 -110 -289
-114 -11 -9 123 -368 140 -375 9 -4 287 100 719 268 55 21 146 57 202 78 57
21 109 43 117 47 11 6 -1 45 -58 192 -39 102 -75 186 -81 187 -5 1 -113 -38
-240 -87z"/>
<path d="M5341 5657 c-14 -129 -39 -218 -91 -326 -120 -251 -349 -462 -665
-612 l-108 -52 -97 7 c-308 20 -577 170 -728 405 -75 118 -162 347 -162 430
l0 24 -97 -7 c-229 -16 -233 -16 -233 -43 0 -45 31 -174 66 -275 185 -532 606
-841 1179 -865 l130 -6 90 37 c585 241 961 674 1040 1196 8 52 15 116 15 143
l0 47 -164 0 -163 0 -12 -103z"/>
<path d="M7850 4689 c-250 -10 -486 -19 -525 -21 l-70 -3 3 -125 c1 -69 5
-160 8 -202 l6 -78 57 0 c46 1 1021 38 1029 39 4 2 2 200 -5 304 -6 101 -7
107 -27 106 -12 -1 -226 -10 -476 -20z"/>
<path d="M517 4423 c-4 -108 -4 -199 -2 -202 7 -7 1283 -46 1290 -39 3 2 8 95
12 204 l6 200 -589 17 c-324 10 -616 17 -650 17 l-61 0 -6 -197z"/>
<path d="M4982 2690 c-82 -38 -154 -112 -262 -265 -147 -209 -325 -435 -343
-435 -4 0 -47 34 -95 76 -291 254 -603 393 -803 356 -79 -15 -142 -47 -204
-104 -68 -62 -99 -122 -90 -175 12 -65 90 -213 168 -318 106 -143 301 -349
538 -571 327 -306 566 -509 593 -502 49 13 328 197 458 301 220 177 465 438
592 631 81 123 152 276 182 393 46 177 25 343 -54 427 -31 32 -319 176 -401
200 -30 9 -91 16 -135 16 -69 0 -90 -4 -144 -30z"/>
</g>
</svg>
